DBRep_DrawableShape

CASCADE Topology V1, (c) Matra-Datavision
Locations 40
1
              1               0               0               0 
              0               1               0               0 
              0               0               1             -10 
1
              1               0               0               0 
              0               1               0               0 
              0               0               1               0 
1
              1               0               0               0 
              0               1               0               0 
              0               0               1             -10 
1
              1               0               0               0 
              0               1               0               0 
              0               0               1              50 
1
              1               0               0               0 
              0               1               0               0 
              0               0               1             -10 
1
              1               0               0               0 
              0               1               0               0 
              0               0               1             -10 
1
              1               0               0               0 
              0               1               0               0 
              0               0               1             -10 
1
              1               0               0               0 
              0               1               0               0 
              0               0               1             -10 
2  3 -1 4 1 5 1 6 -1 7 1 8 -1 0
2  2 -1 0
2  3 -1 4 1 5 1 6 -1 7 1 8 -1 2 1 0
2  1 -1 0
1
              1               0               0              -0 
              0               1               0               0 
              0               0               1              40 
2  13 1 8 -1 0
2  3 -1 4 1 5 1 6 -1 7 1 13 -1 0
2  8 1 13 -1 0
2  1 -1 2 -1 8 1 13 -1 0
1
              1               0               0               0 
              0               1               0               0 
              0               0               1             -10 
2  18 1 3 -1 4 1 5 1 6 -1 7 1 8 -1 0
2  18 -1 0
2  4 -1 3 1 18 -1 0
2  1 -1 2 -1 8 1 7 -1 6 1 5 -1 4 -1 3 1 18 -1 0
2  7 1 8 -1 2 1 0
2  1 -1 2 -1 0
1
              1               0               0               0 
              0               1               0               0 
              0               0               1               5 
2  13 1 8 -1 25 1 0
2  25 -1 8 1 13 -1 0
2  13 -1 0
2  1 -1 2 -1 25 -1 8 1 13 -1 0
2  5 1 6 -1 7 1 8 -1 2 1 0
2  1 -1 2 -1 8 1 7 -1 6 1 5 -1 0
2  18 1 3 -1 0
2  3 1 18 -1 0
2  1 -1 2 -1 8 1 7 -1 6 1 5 -1 3 1 18 -1 0
2  18 1 3 -1 4 1 0
2  2 -1 8 1 7 -1 0
2  1 -1 2 -1 8 1 7 -1 0
2  3 -1 5 1 6 -1 0
2  8 -1 25 1 2 1 0
2  18 1 3 -1 5 1 6 -1 0
Curve2ds 54
2 15 -25 1 0 -0 1 8.5
1 0 -1.4142135623730951 1 0 
2 80 -25 1 0 -0 1 7.7000000000000028
1 0 0 1 0 
1 0 0 1 0 
1 0 -50 1 0 
1 0 -100 0 1 
1 0 -50 1 0 
1 100 0 0 -1 
1 0 -50 1 0 
1 100 -100 -1 0 
1 0 -50 1 0 
2 40 -25 1 0 -0 1 8.5
1 0 -1.4142135623730951 1 0 
8 -1.4142135623730951 0
1 6.2831853071795862 0 0 1 
8 -1.4142135623730951 0
1 0 0 0 1 
1 0 0 1 0 
1 0 -1 1 0 
1 0 0 0 -1 
1 6.2831853071795862 0 0 -1 
1 0 -5 1 0 
2 7.7000000000000028 0 -1 0 0 1 7.7000000000000028
1 0 0 0 -1 
1 100 0 0 -1 
1 100 0 0 -1 
1 0 0 0 -1 
1 0 0 1 0 
1 0 0 1 0 
1 0 0 0 -1 
1 100 0 0 -1 
1 0 0 1 0 
1 0 -100 0 1 
1 100 0 0 -1 
1 0 -0 0 -1 
1 0 0 1 0 
1 100 0 0 -1 
1 0 -0 1 0 
1 100 -100 -1 0 
8 -1.4142135623730951 0
1 6.2831853071795862 0 0 1 
8 -1.4142135623730951 0
1 0 0 0 1 
1 0 0 1 0 
1 0 -1 1 0 
1 0 0 0 -1 
1 6.2831853071795862 0 0 -1 
1 -1.5707963267948966 -50 1 0 
2 15 -25 0 -1 1 0 7.5
1 4.7123889803846897 -50 1 0 
2 15 -25 0 -1 1 0 7.5
2 40 -25 0 -1 1 0 7.5
1 -1.5707963267948966 -50 1 0 
2 40 -25 0 -1 1 0 7.5
1 4.7123889803846897 -50 1 0 
1 0 0 0 -1 
1 6.2831853071795862 0 0 -1 
Curves 27
2 15 -25 50 0 0 1 1 0 -0 -0 1 0 8.5
2 80 -25 0 0 0 1 1 0 -0 -0 1 0 7.7000000000000002
1 0 0 0 1 0 0 
1 0 -100 0 0 1 0 
1 100 0 0 0 -1 0 
1 100 -100 0 -1 0 0 
2 40 -25 50 0 0 1 1 0 -0 -0 1 0 8.5
1 22.5 -25 49 -0.70710678118654757 -0 -0.70710678118654746 
2 15 -25 49 0 0 1 1 0 -0 -0 1 0 7.5
1 87.700000000000003 -25 50 0 0 1 
2 80 -25 0 0 0 1 1 0 -0 -0 1 0 7.7000000000000002
1 0 0 0 0 0 1 
1 100 0 0 0 0 1 
1 0 0 0 1 0 0 
1 0 -100 0 0 0 1 
1 0 -100 0 0 1 0 
1 100 -100 0 0 0 1 
1 100 0 0 0 -1 0 
1 100 -100 0 -1 0 0 
1 47.5 -25 49 -0.70710678118654757 -0 -0.70710678118654746 
2 40 -25 49 0 0 1 1 0 -0 -0 1 0 7.5
1 22.5 -25 50 -0 -0 -1 
2 15 -25 0 0 0 1 0 -1 0 1 0 -0 7.5
2 15 -25 0 0 0 1 0 -1 0 1 0 -0 7.5
2 40 -25 0 0 0 1 0 -1 0 1 0 -0 7.5
2 40 -25 0 0 0 1 0 -1 0 1 0 -0 7.5
1 47.5 -25 50 -0 -0 -1 
Polygon3D 0
PolygonOnTriangulations 0
Surfaces 12
1 0 0 -10 -0 0 1 1 0 0 0 1 -0 
3 15 -25 49 -0 -0 -1 1 0 -0 -0 1 -0 7.5
-0.78539816339744839
2 80 -25 50 -0 -0 -1 1 0 0 -0 1 -0 7.7000000000000002
1 0 0 0 0 1 0 1 0 0 0 0 -1 
1 0 -100 0 -1 0 0 0 1 0 0 0 -1 
1 100 0 0 1 0 -0 0 -1 0 0 -0 -1 
1 100 -100 0 0 -1 0 -1 0 0 -0 -0 -1 
3 40 -25 49 -0 -0 -1 1 0 -0 -0 1 -0 7.5
-0.78539816339744839
2 15 -25 50 0 0 1 1 0 -0 -0 1 0 7.5
1 87.700000000000003 -25 40 -0 0 -1 -1 0 0 0 1 0 
1 0 0 -10 -0 0 1 1 0 0 0 1 -0 
2 40 -25 50 0 0 1 1 0 -0 -0 1 0 7.5
Triangulations 0

TShapes 77
Ve
1e-07
23.5 -25 40
0 0

0101101
*
Ed
 1e-07 1 1 0
1  1 0 0 6.28318530717959
2  1 1 11 0 6.28318530717959
2  2 2 0 0 6.28318530717959
0

0101100
+77 12 -77 12 *
Wi

0101100
-76 0 *
Ve
1e-07
87.7 -25 40
0 0

0101101
*
Ed
 1e-07 1 1 0
1  2 0 0 6.28318530717959
2  3 1 15 0 6.28318530717959
2  4 3 16 0 6.28318530717959
0

0101100
+74 17 -74 17 *
Wi

0101100
-73 14 *
Ve
1e-07
0 0 40
0 0

0101101
*
Ve
1e-07
100 0 40
0 0

0101101
*
Ed
 1e-07 1 1 0
1  3 0 0 100
2  5 1 20 0 100
2  6 4 21 0 100
0

0101000
+71 22 -70 22 *
Ve
1e-07
0 -100 40
0 0

0101101
*
Ed
 1e-07 1 1 0
1  4 0 0 100
2  7 1 20 0 100
2  8 5 21 0 100
0

0101000
+68 22 -71 22 *
Ve
1e-07
100 -100 40
0 0

0101101
*
Ed
 1e-07 1 1 0
1  5 0 0 100
2  9 1 20 0 100
2  10 6 21 0 100
0

0101000
+70 22 -66 22 *
Ed
 1e-07 1 1 0
1  6 0 0 100
2  11 1 20 0 100
2  12 7 21 0 100
0

0101000
+66 22 -68 22 *
Wi

0101100
-69 19 -67 19 -65 19 -64 19 *
Ve
1e-07
48.5 -25 40
0 0

0101101
*
Ed
 1e-07 1 1 0
1  7 0 0 6.28318530717959
2  13 1 11 0 6.28318530717959
2  14 8 0 0 6.28318530717959
0

0101100
+62 12 -62 12 *
Wi

0101100
-61 0 *
Fa
0  1e-07 1 9

0101000
+75 10 +72 0 +63 0 +60 10 *
Ve
1e-07
22.5 -25 39
0 0

0101101
*
Ed
 1e-07 1 1 0
1  8 0 -1.4142135623731 0
3  15 16CN 2 0 -1.4142135623731 0
0

0101000
+77 12 -58 12 *
Ed
 1e-07 1 1 0
1  9 0 0 6.28318530717959
2  17 2 0 0 6.28318530717959
2  18 9 23 0 6.28318530717959
0

0101100
+58 12 -58 12 *
Wi

0101100
-57 0 +76 0 -56 0 +57 0 *
Fa
0  1e-07 2 0

0101000
+55 0 *
Ve
1e-07
87.7 -25 45
0 0

0101101
*
Ed
 1e-07 1 1 0
1  10 0 0 5
3  19 20CN 3 0 0 5
0

0101000
+74 24 -53 24 *
Ed
 1e-07 1 1 0
1  11 0 0 6.28318530717959
2  21 3 27 0 6.28318530717959
2  22 10 28 0 6.28318530717959
0

0101100
+53 29 -53 29 *
Wi

0101000
-73 14 -52 0 +51 26 +52 0 *
Fa
0  1e-07 3 0

0101000
+50 0 *
Ve
1e-07
0 0 -10
0 0

0101101
*
Ed
 1e-07 1 1 0
1  12 0 0 50
2  23 4 0 0 50
2  24 5 0 0 50
0

0101000
+48 31 -71 31 *
Ve
1e-07
100 0 -10
0 0

0101101
*
Ed
 1e-07 1 1 0
1  13 0 0 50
2  25 4 0 0 50
2  26 6 0 0 50
0

0101000
+46 31 -70 31 *
Ed
 1e-07 1 1 0
1  14 0 0 100
2  27 4 33 0 100
2  28 11 20 0 100
0

0101000
+48 34 -46 34 *
Wi

0101000
+47 0 -45 0 -44 32 +69 35 *
Fa
0  1e-07 4 0

0101000
+43 0 *
Ve
1e-07
0 -100 -10
0 0

0101101
*
Ed
 1e-07 1 1 0
1  15 0 0 50
2  29 5 0 0 50
2  30 7 0 0 50
0

0101000
+41 31 -68 31 *
Ed
 1e-07 1 1 0
1  16 0 0 100
2  31 5 33 0 100
2  32 11 20 0 100
0

0101000
+41 34 -48 34 *
Wi

0101000
+40 0 -47 0 -39 32 +67 35 *
Fa
0  1e-07 5 0

0101000
+38 0 *
Ve
1e-07
100 -100 -10
0 0

0101101
*
Ed
 1e-07 1 1 0
1  17 0 0 50
2  33 6 0 0 50
2  34 7 0 0 50
0

0101000
+36 31 -66 31 *
Ed
 1e-07 1 1 0
1  18 0 0 100
2  35 6 33 0 100
2  36 11 20 0 100
0

0101000
+46 34 -36 34 *
Wi

0101000
+45 0 -35 0 -34 32 +65 35 *
Fa
0  1e-07 6 0

0101000
+33 0 *
Ed
 1e-07 1 1 0
1  19 0 0 100
2  37 7 33 0 100
2  38 11 20 0 100
0

0101000
+36 34 -41 34 *
Wi

0101000
+35 0 -40 0 -31 32 +64 35 *
Fa
0  1e-07 7 0

0101000
+30 0 *
Ve
1e-07
47.5 -25 39
0 0

0101101
*
Ed
 1e-07 1 1 0
1  20 0 -1.4142135623731 0
3  39 40CN 8 0 -1.4142135623731 0
0

0101000
+62 12 -28 12 *
Ed
 1e-07 1 1 0
1  21 0 0 6.28318530717959
2  41 8 0 0 6.28318530717959
2  42 12 23 0 6.28318530717959
0

0101100
+28 12 -28 12 *
Wi

0101100
-27 0 +61 0 -26 0 +27 0 *
Fa
0  1e-07 8 0

0101000
+25 0 *
Ve
2.00001e-07
22.5 -25 -10
0 0

0101101
*
Ed
 1e-07 1 1 0
1  22 0 1 50
3  43 44CN 9 0 1 50
0

0101000
+58 37 -23 37 *
Ve
1e-07
15 -32.5 -10
0 0

0101101
*
Ed
 1e-07 1 1 0
1  23 0 1.5707963267949 6.28318530717959
2  45 9 0 1.5707963267949 6.28318530717959
2  46 11 38 1.5707963267949 6.28318530717959
0

0101000
+23 37 -21 37 *
Ed
 1e-07 1 1 0
1  24 0 0 1.5707963267949
2  47 9 0 0 1.5707963267949
2  48 11 38 0 1.5707963267949
0

0101000
+21 37 -23 37 *
Wi

0101100
+22 23 -56 0 +20 23 -22 23 +19 23 *
Fa
0  1e-07 9 0

0101000
+18 36 *
Wi

0101100
+51 0 *
Fa
0  1e-07 10 0

0101000
-16 13 *
Wi

0101100
-20 0 -19 0 *
Ve
2.00001e-07
47.5 -25 -10
0 0

0101101
*
Ve
1e-07
40 -32.5 -10
0 0

0101101
*
Ed
 1e-07 1 1 0
1  25 0 1.5707963267949 6.28318530717959
2  49 11 38 1.5707963267949 6.28318530717959
2  50 12 0 1.5707963267949 6.28318530717959
0

0101000
+13 37 -12 37 *
Ed
 1e-07 1 1 0
1  26 0 0 1.5707963267949
2  51 11 38 0 1.5707963267949
2  52 12 0 0 1.5707963267949
0

0101000
+12 37 -13 37 *
Wi

0101100
-11 0 -10 0 *
Wi

0101000
-44 40 -39 40 -34 40 -31 40 *
Fa
0  1e-07 11 38

0101000
+14 0 +9 0 +8 0 *
Ed
 1e-07 1 1 0
1  27 0 1 50
3  53 54CN 12 0 1 50
0

0101000
+28 37 -13 37 *
Wi

0101100
+6 23 -26 0 +11 23 -6 23 +10 23 *
Fa
0  1e-07 12 0

0101000
+5 36 *
Sh

0101100
+59 2 +54 0 -49 2 +42 30 +37 30 +32 30 +29 30 +24 0 -17 23 -15 39 
-7 23 -4 23 *
So

0100000
+3 0 *
Co

1100000
+2 0 *

+1 1 